<svg xmlns="http://www.w3.org/2000/svg" width="17.223" height="17.223" viewBox="0 0 17.223 17.223">
  <path id="chart-simple-solid" d="M6.151,33.845A1.846,1.846,0,0,1,8,32h1.23a1.846,1.846,0,0,1,1.845,1.845V47.377a1.846,1.846,0,0,1-1.845,1.845H8a1.846,1.846,0,0,1-1.845-1.845ZM0,41.226a1.846,1.846,0,0,1,1.845-1.845h1.23a1.846,1.846,0,0,1,1.845,1.845v6.151a1.846,1.846,0,0,1-1.845,1.845H1.845A1.846,1.846,0,0,1,0,47.377ZM15.377,34.46a1.846,1.846,0,0,1,1.845,1.845V47.377a1.846,1.846,0,0,1-1.845,1.845h-1.23A1.846,1.846,0,0,1,12.3,47.377V36.306a1.846,1.846,0,0,1,1.845-1.845Z" transform="translate(0 -32)" fill="#979797"/>
</svg>
