<svg width="415" height="410" viewBox="0 0 415 410" fill="none" xmlns="http://www.w3.org/2000/svg">
<g filter="url(#filter0_d_209_11)">
<path d="M50 105C50 82.5979 50 71.3968 54.3597 62.8404C58.1947 55.3139 64.3139 49.1947 71.8404 45.3597C80.3968 41 91.5979 41 114 41H301C323.402 41 334.603 41 343.16 45.3597C350.686 49.1947 356.805 55.3139 360.64 62.8404C365 71.3968 365 82.5979 365 105V287C365 309.402 365 320.603 360.64 329.16C356.805 336.686 350.686 342.805 343.16 346.64C334.603 351 323.402 351 301 351H114C91.5979 351 80.3968 351 71.8404 346.64C64.3139 342.805 58.1947 336.686 54.3597 329.16C50 320.603 50 309.402 50 287V105Z" fill="white"/>
</g>
<path d="M300.539 94.3672C300.539 93.5 299.844 92.8047 298.961 92.8047C298.094 92.8047 297.398 93.5 297.398 94.3672C297.398 95.2344 298.094 95.9297 298.961 95.9297C299.844 95.9297 300.539 95.2344 300.539 94.3672ZM306.32 94.3672C306.32 93.5 305.633 92.8047 304.766 92.8047C303.898 92.8047 303.211 93.5 303.211 94.3672C303.211 95.2344 303.898 95.9297 304.766 95.9297C305.633 95.9297 306.32 95.2344 306.32 94.3672ZM312.133 94.3672C312.133 93.5 311.43 92.8047 310.57 92.8047C309.687 92.8047 308.992 93.5 308.992 94.3672C308.992 95.2344 309.687 95.9297 310.57 95.9297C311.43 95.9297 312.133 95.2344 312.133 94.3672Z" fill="#3A3A3A"/>
<path d="M94.664 95.128V99H93.496V95.128L89.016 87.8H90.28L94.12 94.088L97.96 87.8H99.144L94.664 95.128ZM103.227 99.08C102.416 99.08 101.686 98.8987 101.035 98.536C100.384 98.1627 99.8725 97.6507 99.4991 97C99.1258 96.3493 98.9391 95.6133 98.9391 94.792C98.9391 93.9707 99.1258 93.2347 99.4991 92.584C99.8725 91.9333 100.384 91.4267 101.035 91.064C101.686 90.7013 102.416 90.52 103.227 90.52C104.038 90.52 104.768 90.7013 105.419 91.064C106.07 91.4267 106.576 91.9333 106.939 92.584C107.312 93.2347 107.499 93.9707 107.499 94.792C107.499 95.6133 107.312 96.3493 106.939 97C106.576 97.6507 106.07 98.1627 105.419 98.536C104.768 98.8987 104.038 99.08 103.227 99.08ZM103.227 98.072C103.824 98.072 104.358 97.9387 104.827 97.672C105.307 97.3947 105.68 97.0053 105.947 96.504C106.214 96.0027 106.347 95.432 106.347 94.792C106.347 94.152 106.214 93.5813 105.947 93.08C105.68 92.5787 105.307 92.1947 104.827 91.928C104.358 91.6507 103.824 91.512 103.227 91.512C102.63 91.512 102.091 91.6507 101.611 91.928C101.142 92.1947 100.768 92.5787 100.491 93.08C100.224 93.5813 100.091 94.152 100.091 94.792C100.091 95.432 100.224 96.0027 100.491 96.504C100.768 97.0053 101.142 97.3947 101.611 97.672C102.091 97.9387 102.63 98.072 103.227 98.072ZM117.402 90.584V99H116.314V97.464C116.016 97.976 115.605 98.376 115.082 98.664C114.56 98.9413 113.962 99.08 113.29 99.08C112.192 99.08 111.322 98.776 110.682 98.168C110.053 97.5493 109.738 96.648 109.738 95.464V90.584H110.874V95.352C110.874 96.2373 111.093 96.9093 111.53 97.368C111.968 97.8267 112.592 98.056 113.402 98.056C114.288 98.056 114.986 97.7893 115.498 97.256C116.01 96.712 116.266 95.96 116.266 95V90.584H117.402ZM121.672 92.232C121.939 91.6667 122.333 91.24 122.856 90.952C123.389 90.664 124.045 90.52 124.824 90.52V91.624L124.552 91.608C123.667 91.608 122.973 91.88 122.472 92.424C121.971 92.968 121.72 93.7307 121.72 94.712V99H120.584V90.584H121.672V92.232ZM135.625 98.488C135.412 98.68 135.145 98.8293 134.825 98.936C134.516 99.032 134.191 99.08 133.849 99.08C133.06 99.08 132.452 98.8667 132.025 98.44C131.599 98.0133 131.385 97.4107 131.385 96.632V91.544H129.881V90.584H131.385V88.744H132.521V90.584H135.081V91.544H132.521V96.568C132.521 97.0693 132.644 97.4533 132.889 97.72C133.145 97.976 133.508 98.104 133.977 98.104C134.212 98.104 134.436 98.0667 134.649 97.992C134.873 97.9173 135.065 97.8107 135.225 97.672L135.625 98.488ZM140.837 99.08C140.026 99.08 139.295 98.8987 138.645 98.536C137.994 98.1627 137.482 97.6507 137.109 97C136.735 96.3493 136.549 95.6133 136.549 94.792C136.549 93.9707 136.735 93.2347 137.109 92.584C137.482 91.9333 137.994 91.4267 138.645 91.064C139.295 90.7013 140.026 90.52 140.837 90.52C141.647 90.52 142.378 90.7013 143.029 91.064C143.679 91.4267 144.186 91.9333 144.549 92.584C144.922 93.2347 145.109 93.9707 145.109 94.792C145.109 95.6133 144.922 96.3493 144.549 97C144.186 97.6507 143.679 98.1627 143.029 98.536C142.378 98.8987 141.647 99.08 140.837 99.08ZM140.837 98.072C141.434 98.072 141.967 97.9387 142.437 97.672C142.917 97.3947 143.29 97.0053 143.557 96.504C143.823 96.0027 143.957 95.432 143.957 94.792C143.957 94.152 143.823 93.5813 143.557 93.08C143.29 92.5787 142.917 92.1947 142.437 91.928C141.967 91.6507 141.434 91.512 140.837 91.512C140.239 91.512 139.701 91.6507 139.221 91.928C138.751 92.1947 138.378 92.5787 138.101 93.08C137.834 93.5813 137.701 94.152 137.701 94.792C137.701 95.432 137.834 96.0027 138.101 96.504C138.378 97.0053 138.751 97.3947 139.221 97.672C139.701 97.9387 140.239 98.072 140.837 98.072ZM151.86 98.488C151.646 98.68 151.38 98.8293 151.06 98.936C150.75 99.032 150.425 99.08 150.084 99.08C149.294 99.08 148.686 98.8667 148.26 98.44C147.833 98.0133 147.62 97.4107 147.62 96.632V91.544H146.116V90.584H147.62V88.744H148.756V90.584H151.316V91.544H148.756V96.568C148.756 97.0693 148.878 97.4533 149.124 97.72C149.38 97.976 149.742 98.104 150.212 98.104C150.446 98.104 150.67 98.0667 150.884 97.992C151.108 97.9173 151.3 97.8107 151.46 97.672L151.86 98.488ZM156.872 90.52C157.97 90.52 158.813 90.7973 159.4 91.352C159.986 91.896 160.28 92.7067 160.28 93.784V99H159.192V97.688C158.936 98.1253 158.557 98.4667 158.056 98.712C157.565 98.9573 156.978 99.08 156.296 99.08C155.357 99.08 154.61 98.856 154.056 98.408C153.501 97.96 153.224 97.368 153.224 96.632C153.224 95.9173 153.48 95.3413 153.992 94.904C154.514 94.4667 155.341 94.248 156.472 94.248H159.144V93.736C159.144 93.0107 158.941 92.4613 158.536 92.088C158.13 91.704 157.538 91.512 156.76 91.512C156.226 91.512 155.714 91.6027 155.224 91.784C154.733 91.9547 154.312 92.1947 153.96 92.504L153.448 91.656C153.874 91.2933 154.386 91.016 154.984 90.824C155.581 90.6213 156.21 90.52 156.872 90.52ZM156.472 98.184C157.112 98.184 157.661 98.04 158.12 97.752C158.578 97.4533 158.92 97.0267 159.144 96.472V95.096H156.504C155.064 95.096 154.344 95.5973 154.344 96.6C154.344 97.0907 154.53 97.48 154.904 97.768C155.277 98.0453 155.8 98.184 156.472 98.184ZM163.365 87.128H164.501V99H163.365V87.128ZM176.186 90.52C176.975 90.52 177.69 90.7013 178.33 91.064C178.97 91.416 179.471 91.9173 179.834 92.568C180.196 93.2187 180.378 93.96 180.378 94.792C180.378 95.624 180.196 96.3653 179.834 97.016C179.471 97.6667 178.97 98.1733 178.33 98.536C177.69 98.8987 176.975 99.08 176.186 99.08C175.482 99.08 174.847 98.9307 174.282 98.632C173.727 98.3333 173.279 97.9013 172.938 97.336V99H171.85V87.128H172.986V92.184C173.338 91.64 173.786 91.2293 174.33 90.952C174.884 90.664 175.503 90.52 176.186 90.52ZM176.106 98.072C176.692 98.072 177.226 97.9387 177.706 97.672C178.186 97.3947 178.559 97.0053 178.826 96.504C179.103 96.0027 179.242 95.432 179.242 94.792C179.242 94.152 179.103 93.5813 178.826 93.08C178.559 92.5787 178.186 92.1947 177.706 91.928C177.226 91.6507 176.692 91.512 176.106 91.512C175.508 91.512 174.97 91.6507 174.49 91.928C174.02 92.1947 173.647 92.5787 173.37 93.08C173.103 93.5813 172.97 94.152 172.97 94.792C172.97 95.432 173.103 96.0027 173.37 96.504C173.647 97.0053 174.02 97.3947 174.49 97.672C174.97 97.9387 175.508 98.072 176.106 98.072ZM185.591 90.52C186.689 90.52 187.532 90.7973 188.119 91.352C188.705 91.896 188.999 92.7067 188.999 93.784V99H187.911V97.688C187.655 98.1253 187.276 98.4667 186.775 98.712C186.284 98.9573 185.697 99.08 185.015 99.08C184.076 99.08 183.329 98.856 182.775 98.408C182.22 97.96 181.943 97.368 181.943 96.632C181.943 95.9173 182.199 95.3413 182.711 94.904C183.233 94.4667 184.06 94.248 185.191 94.248H187.863V93.736C187.863 93.0107 187.66 92.4613 187.255 92.088C186.849 91.704 186.257 91.512 185.479 91.512C184.945 91.512 184.433 91.6027 183.943 91.784C183.452 91.9547 183.031 92.1947 182.679 92.504L182.167 91.656C182.593 91.2933 183.105 91.016 183.703 90.824C184.3 90.6213 184.929 90.52 185.591 90.52ZM185.191 98.184C185.831 98.184 186.38 98.04 186.839 97.752C187.297 97.4533 187.639 97.0267 187.863 96.472V95.096H185.223C183.783 95.096 183.062 95.5973 183.062 96.6C183.062 97.0907 183.249 97.48 183.623 97.768C183.996 98.0453 184.519 98.184 185.191 98.184ZM192.084 87.128H193.22V99H192.084V87.128ZM199.325 90.52C200.424 90.52 201.266 90.7973 201.853 91.352C202.44 91.896 202.733 92.7067 202.733 93.784V99H201.645V97.688C201.389 98.1253 201.01 98.4667 200.509 98.712C200.018 98.9573 199.432 99.08 198.749 99.08C197.81 99.08 197.064 98.856 196.509 98.408C195.954 97.96 195.677 97.368 195.677 96.632C195.677 95.9173 195.933 95.3413 196.445 94.904C196.968 94.4667 197.794 94.248 198.925 94.248H201.597V93.736C201.597 93.0107 201.394 92.4613 200.989 92.088C200.584 91.704 199.992 91.512 199.213 91.512C198.68 91.512 198.168 91.6027 197.677 91.784C197.186 91.9547 196.765 92.1947 196.413 92.504L195.901 91.656C196.328 91.2933 196.84 91.016 197.437 90.824C198.034 90.6213 198.664 90.52 199.325 90.52ZM198.925 98.184C199.565 98.184 200.114 98.04 200.573 97.752C201.032 97.4533 201.373 97.0267 201.597 96.472V95.096H198.957C197.517 95.096 196.797 95.5973 196.797 96.6C196.797 97.0907 196.984 97.48 197.357 97.768C197.73 98.0453 198.253 98.184 198.925 98.184ZM210.106 90.52C211.162 90.52 212 90.8293 212.618 91.448C213.248 92.056 213.562 92.9467 213.562 94.12V99H212.426V94.232C212.426 93.3573 212.208 92.6907 211.77 92.232C211.333 91.7733 210.709 91.544 209.898 91.544C208.992 91.544 208.272 91.816 207.738 92.36C207.216 92.8933 206.954 93.6347 206.954 94.584V99H205.818V90.584H206.906V92.136C207.216 91.624 207.642 91.2293 208.186 90.952C208.741 90.664 209.381 90.52 210.106 90.52ZM220.166 99.08C219.334 99.08 218.587 98.8987 217.926 98.536C217.275 98.1733 216.763 97.6667 216.39 97.016C216.016 96.3547 215.83 95.6133 215.83 94.792C215.83 93.9707 216.016 93.2347 216.39 92.584C216.763 91.9333 217.275 91.4267 217.926 91.064C218.587 90.7013 219.334 90.52 220.166 90.52C220.891 90.52 221.536 90.664 222.102 90.952C222.678 91.2293 223.131 91.64 223.462 92.184L222.614 92.76C222.336 92.344 221.984 92.0347 221.558 91.832C221.131 91.6187 220.667 91.512 220.166 91.512C219.558 91.512 219.008 91.6507 218.518 91.928C218.038 92.1947 217.659 92.5787 217.382 93.08C217.115 93.5813 216.982 94.152 216.982 94.792C216.982 95.4427 217.115 96.0187 217.382 96.52C217.659 97.0107 218.038 97.3947 218.518 97.672C219.008 97.9387 219.558 98.072 220.166 98.072C220.667 98.072 221.131 97.9707 221.558 97.768C221.984 97.5653 222.336 97.256 222.614 96.84L223.462 97.416C223.131 97.96 222.678 98.376 222.102 98.664C221.526 98.9413 220.88 99.08 220.166 99.08ZM232.881 95.144H225.841C225.905 96.0187 226.241 96.728 226.849 97.272C227.457 97.8053 228.225 98.072 229.153 98.072C229.675 98.072 230.155 97.9813 230.593 97.8C231.03 97.608 231.409 97.3307 231.729 96.968L232.369 97.704C231.995 98.152 231.526 98.4933 230.961 98.728C230.406 98.9627 229.793 99.08 229.121 99.08C228.257 99.08 227.489 98.8987 226.817 98.536C226.155 98.1627 225.638 97.6507 225.265 97C224.891 96.3493 224.705 95.6133 224.705 94.792C224.705 93.9707 224.881 93.2347 225.233 92.584C225.595 91.9333 226.086 91.4267 226.705 91.064C227.334 90.7013 228.038 90.52 228.817 90.52C229.595 90.52 230.294 90.7013 230.913 91.064C231.531 91.4267 232.017 91.9333 232.369 92.584C232.721 93.224 232.897 93.96 232.897 94.792L232.881 95.144ZM228.817 91.496C228.006 91.496 227.323 91.7573 226.769 92.28C226.225 92.792 225.915 93.464 225.841 94.296H231.809C231.734 93.464 231.419 92.792 230.865 92.28C230.321 91.7573 229.638 91.496 228.817 91.496Z" fill="#3A3A3A"/>
<path d="M101.68 134.17H106.12V142.69C104.98 143.55 103.66 144.21 102.16 144.67C100.66 145.13 99.15 145.36 97.63 145.36C95.45 145.36 93.49 144.9 91.75 143.98C90.01 143.04 88.64 141.75 87.64 140.11C86.66 138.45 86.17 136.58 86.17 134.5C86.17 132.42 86.66 130.56 87.64 128.92C88.64 127.26 90.02 125.97 91.78 125.05C93.54 124.11 95.52 123.64 97.72 123.64C99.56 123.64 101.23 123.95 102.73 124.57C104.23 125.19 105.49 126.09 106.51 127.27L103.39 130.15C101.89 128.57 100.08 127.78 97.96 127.78C96.62 127.78 95.43 128.06 94.39 128.62C93.35 129.18 92.54 129.97 91.96 130.99C91.38 132.01 91.09 133.18 91.09 134.5C91.09 135.8 91.38 136.96 91.96 137.98C92.54 139 93.34 139.8 94.36 140.38C95.4 140.94 96.58 141.22 97.9 141.22C99.3 141.22 100.56 140.92 101.68 140.32V134.17ZM129.895 124V145H125.035V136.39H115.495V145H110.635V124H115.495V132.28H125.035V124H129.895ZM139.963 145.24C138.623 145.24 137.313 145.08 136.033 144.76C134.753 144.42 133.733 144 132.973 143.5L134.533 140.14C135.253 140.6 136.123 140.98 137.143 141.28C138.163 141.56 139.163 141.7 140.143 141.7C142.123 141.7 143.113 141.21 143.113 140.23C143.113 139.77 142.843 139.44 142.303 139.24C141.763 139.04 140.933 138.87 139.813 138.73C138.493 138.53 137.403 138.3 136.543 138.04C135.683 137.78 134.933 137.32 134.293 136.66C133.673 136 133.363 135.06 133.363 133.84C133.363 132.82 133.653 131.92 134.233 131.14C134.833 130.34 135.693 129.72 136.813 129.28C137.953 128.84 139.293 128.62 140.833 128.62C141.973 128.62 143.103 128.75 144.223 129.01C145.363 129.25 146.303 129.59 147.043 130.03L145.483 133.36C144.063 132.56 142.513 132.16 140.833 132.16C139.833 132.16 139.083 132.3 138.583 132.58C138.083 132.86 137.833 133.22 137.833 133.66C137.833 134.16 138.103 134.51 138.643 134.71C139.183 134.91 140.043 135.1 141.223 135.28C142.543 135.5 143.623 135.74 144.463 136C145.303 136.24 146.033 136.69 146.653 137.35C147.273 138.01 147.583 138.93 147.583 140.11C147.583 141.11 147.283 142 146.683 142.78C146.083 143.56 145.203 144.17 144.043 144.61C142.903 145.03 141.543 145.24 139.963 145.24ZM172.347 133.96C173.387 134.48 174.177 135.16 174.717 136C175.277 136.84 175.557 137.81 175.557 138.91C175.557 140.21 175.187 141.35 174.447 142.33C173.707 143.29 172.667 144.04 171.327 144.58C169.987 145.1 168.437 145.36 166.677 145.36C164.917 145.36 163.367 145.1 162.027 144.58C160.707 144.04 159.677 143.29 158.937 142.33C158.217 141.35 157.857 140.21 157.857 138.91C157.857 137.81 158.127 136.84 158.667 136C159.227 135.16 160.017 134.48 161.037 133.96C160.257 133.48 159.657 132.88 159.237 132.16C158.817 131.42 158.607 130.58 158.607 129.64C158.607 128.42 158.947 127.36 159.627 126.46C160.307 125.56 161.257 124.87 162.477 124.39C163.697 123.89 165.097 123.64 166.677 123.64C168.277 123.64 169.687 123.89 170.907 124.39C172.147 124.87 173.107 125.56 173.787 126.46C174.467 127.36 174.807 128.42 174.807 129.64C174.807 130.58 174.597 131.42 174.177 132.16C173.757 132.88 173.147 133.48 172.347 133.96ZM166.677 127.21C165.697 127.21 164.907 127.45 164.307 127.93C163.727 128.39 163.437 129.03 163.437 129.85C163.437 130.65 163.727 131.28 164.307 131.74C164.887 132.2 165.677 132.43 166.677 132.43C167.677 132.43 168.477 132.2 169.077 131.74C169.677 131.28 169.977 130.65 169.977 129.85C169.977 129.03 169.677 128.39 169.077 127.93C168.477 127.45 167.677 127.21 166.677 127.21ZM166.677 141.79C167.897 141.79 168.857 141.52 169.557 140.98C170.277 140.42 170.637 139.68 170.637 138.76C170.637 137.84 170.277 137.11 169.557 136.57C168.857 136.03 167.897 135.76 166.677 135.76C165.477 135.76 164.527 136.03 163.827 136.57C163.127 137.11 162.777 137.84 162.777 138.76C162.777 139.7 163.127 140.44 163.827 140.98C164.527 141.52 165.477 141.79 166.677 141.79ZM186.781 145.36C185.041 145.36 183.491 144.93 182.131 144.07C180.771 143.21 179.701 141.97 178.921 140.35C178.161 138.71 177.781 136.76 177.781 134.5C177.781 132.24 178.161 130.3 178.921 128.68C179.701 127.04 180.771 125.79 182.131 124.93C183.491 124.07 185.041 123.64 186.781 123.64C188.521 123.64 190.071 124.07 191.431 124.93C192.791 125.79 193.851 127.04 194.611 128.68C195.391 130.3 195.781 132.24 195.781 134.5C195.781 136.76 195.391 138.71 194.611 140.35C193.851 141.97 192.791 143.21 191.431 144.07C190.071 144.93 188.521 145.36 186.781 145.36ZM186.781 141.25C188.061 141.25 189.061 140.7 189.781 139.6C190.521 138.5 190.891 136.8 190.891 134.5C190.891 132.2 190.521 130.5 189.781 129.4C189.061 128.3 188.061 127.75 186.781 127.75C185.521 127.75 184.521 128.3 183.781 129.4C183.061 130.5 182.701 132.2 182.701 134.5C182.701 136.8 183.061 138.5 183.781 139.6C184.521 140.7 185.521 141.25 186.781 141.25ZM207.143 145.36C205.403 145.36 203.853 144.93 202.493 144.07C201.133 143.21 200.063 141.97 199.283 140.35C198.523 138.71 198.143 136.76 198.143 134.5C198.143 132.24 198.523 130.3 199.283 128.68C200.063 127.04 201.133 125.79 202.493 124.93C203.853 124.07 205.403 123.64 207.143 123.64C208.883 123.64 210.433 124.07 211.793 124.93C213.153 125.79 214.213 127.04 214.973 128.68C215.753 130.3 216.143 132.24 216.143 134.5C216.143 136.76 215.753 138.71 214.973 140.35C214.213 141.97 213.153 143.21 211.793 144.07C210.433 144.93 208.883 145.36 207.143 145.36ZM207.143 141.25C208.423 141.25 209.423 140.7 210.143 139.6C210.883 138.5 211.253 136.8 211.253 134.5C211.253 132.2 210.883 130.5 210.143 129.4C209.423 128.3 208.423 127.75 207.143 127.75C205.883 127.75 204.883 128.3 204.143 129.4C203.423 130.5 203.063 132.2 203.063 134.5C203.063 136.8 203.423 138.5 204.143 139.6C204.883 140.7 205.883 141.25 207.143 141.25ZM220.913 139.42C221.753 139.42 222.443 139.69 222.983 140.23C223.523 140.75 223.793 141.44 223.793 142.3C223.793 142.7 223.743 143.1 223.643 143.5C223.543 143.9 223.323 144.5 222.983 145.3L221.273 149.62H218.303L219.623 144.85C219.123 144.65 218.723 144.33 218.423 143.89C218.143 143.43 218.003 142.9 218.003 142.3C218.003 141.44 218.273 140.75 218.813 140.23C219.373 139.69 220.073 139.42 220.913 139.42ZM233.355 123.64C236.295 123.64 238.595 124.54 240.255 126.34C241.915 128.12 242.745 130.69 242.745 134.05C242.745 136.43 242.295 138.47 241.395 140.17C240.515 141.87 239.265 143.16 237.645 144.04C236.025 144.92 234.155 145.36 232.035 145.36C230.915 145.36 229.845 145.24 228.825 145C227.805 144.74 226.935 144.38 226.215 143.92L228.015 140.35C229.035 141.05 230.345 141.4 231.945 141.4C233.725 141.4 235.135 140.88 236.175 139.84C237.215 138.78 237.775 137.26 237.855 135.28C236.595 136.54 234.855 137.17 232.635 137.17C231.295 137.17 230.075 136.9 228.975 136.36C227.875 135.82 227.005 135.06 226.365 134.08C225.725 133.08 225.405 131.93 225.405 130.63C225.405 129.23 225.755 128 226.455 126.94C227.155 125.88 228.105 125.07 229.305 124.51C230.525 123.93 231.875 123.64 233.355 123.64ZM233.715 133.54C234.775 133.54 235.635 133.25 236.295 132.67C236.975 132.07 237.315 131.31 237.315 130.39C237.315 129.47 236.985 128.72 236.325 128.14C235.685 127.56 234.795 127.27 233.655 127.27C232.615 127.27 231.765 127.55 231.105 128.11C230.465 128.67 230.145 129.43 230.145 130.39C230.145 131.35 230.465 132.12 231.105 132.7C231.765 133.26 232.635 133.54 233.715 133.54ZM261.399 124V127.15L253.599 145H248.319L255.849 127.96H248.889V131.38H244.569V124H261.399ZM273.168 132.55C275.008 132.85 276.418 133.54 277.398 134.62C278.378 135.68 278.868 137 278.868 138.58C278.868 139.8 278.548 140.93 277.908 141.97C277.268 142.99 276.288 143.81 274.968 144.43C273.668 145.05 272.068 145.36 270.168 145.36C268.688 145.36 267.228 145.17 265.788 144.79C264.368 144.39 263.158 143.83 262.157 143.11L264.048 139.39C264.848 139.99 265.768 140.46 266.808 140.8C267.868 141.12 268.948 141.28 270.048 141.28C271.268 141.28 272.228 141.05 272.928 140.59C273.628 140.11 273.978 139.44 273.978 138.58C273.978 136.86 272.668 136 270.048 136H267.828V132.79L272.148 127.9H263.208V124H277.908V127.15L273.168 132.55ZM283.871 145.24C283.051 145.24 282.361 144.96 281.801 144.4C281.241 143.84 280.961 143.14 280.961 142.3C280.961 141.44 281.241 140.75 281.801 140.23C282.361 139.69 283.051 139.42 283.871 139.42C284.691 139.42 285.381 139.69 285.941 140.23C286.501 140.75 286.781 141.44 286.781 142.3C286.781 143.14 286.501 143.84 285.941 144.4C285.381 144.96 284.691 145.24 283.871 145.24ZM297.582 145.36C295.842 145.36 294.292 144.93 292.932 144.07C291.572 143.21 290.502 141.97 289.722 140.35C288.962 138.71 288.582 136.76 288.582 134.5C288.582 132.24 288.962 130.3 289.722 128.68C290.502 127.04 291.572 125.79 292.932 124.93C294.292 124.07 295.842 123.64 297.582 123.64C299.322 123.64 300.872 124.07 302.232 124.93C303.592 125.79 304.652 127.04 305.412 128.68C306.192 130.3 306.582 132.24 306.582 134.5C306.582 136.76 306.192 138.71 305.412 140.35C304.652 141.97 303.592 143.21 302.232 144.07C300.872 144.93 299.322 145.36 297.582 145.36ZM297.582 141.25C298.862 141.25 299.862 140.7 300.582 139.6C301.322 138.5 301.692 136.8 301.692 134.5C301.692 132.2 301.322 130.5 300.582 129.4C299.862 128.3 298.862 127.75 297.582 127.75C296.322 127.75 295.322 128.3 294.582 129.4C293.862 130.5 293.502 132.2 293.502 134.5C293.502 136.8 293.862 138.5 294.582 139.6C295.322 140.7 296.322 141.25 297.582 141.25ZM317.943 145.36C316.203 145.36 314.653 144.93 313.293 144.07C311.933 143.21 310.863 141.97 310.083 140.35C309.323 138.71 308.943 136.76 308.943 134.5C308.943 132.24 309.323 130.3 310.083 128.68C310.863 127.04 311.933 125.79 313.293 124.93C314.653 124.07 316.203 123.64 317.943 123.64C319.683 123.64 321.233 124.07 322.593 124.93C323.953 125.79 325.013 127.04 325.773 128.68C326.553 130.3 326.943 132.24 326.943 134.5C326.943 136.76 326.553 138.71 325.773 140.35C325.013 141.97 323.953 143.21 322.593 144.07C321.233 144.93 319.683 145.36 317.943 145.36ZM317.943 141.25C319.223 141.25 320.223 140.7 320.943 139.6C321.683 138.5 322.053 136.8 322.053 134.5C322.053 132.2 321.683 130.5 320.943 129.4C320.223 128.3 319.223 127.75 317.943 127.75C316.683 127.75 315.683 128.3 314.943 129.4C314.223 130.5 313.863 132.2 313.863 134.5C313.863 136.8 314.223 138.5 314.943 139.6C315.683 140.7 316.683 141.25 317.943 141.25Z" fill="#2D99FF"/>
<path d="M75 200.5C75 198.015 77.0147 196 79.5 196C81.9853 196 84 198.015 84 200.5V318H75V200.5Z" fill="#2D99FF"/>
<path d="M88 335.5C88 337.985 90.0147 340 92.5 340C94.9853 340 97 337.985 97 335.5V313H88V335.5Z" fill="#3AF9EF"/>
<path d="M113 221.886C113 219.74 114.74 218 116.886 218C119.033 218 120.773 219.74 120.773 221.886V317.972H113V221.886Z" fill="#2D99FF"/>
<path d="M125 328C125 330.209 126.791 332 129 332C131.209 332 133 330.209 133 328V313H125V328Z" fill="#3AF9EF"/>
<path d="M149 249C149 246.791 150.791 245 153 245C155.209 245 157 246.791 157 249V318H149V249Z" fill="#2D99FF"/>
<path d="M161 321C161 323.209 162.791 325 165 325C167.209 325 169 323.209 169 321V313H161V321Z" fill="#3AF9EF"/>
<path d="M180 276C180 273.791 181.791 272 184 272C186.209 272 188 273.791 188 276V320H180V276Z" fill="#2D99FF"/>
<path d="M192 318C192 320.209 193.791 322 196 322C198.209 322 200 320.209 200 318V313H192V318Z" fill="#3AF9EF"/>
<path d="M219.019 348.35C219.009 350.559 217.209 352.341 215 352.33C212.791 352.32 211.009 350.52 211.019 348.311L211.189 313L219.189 313.038L219.019 348.35Z" fill="#2D99FF"/>
<path d="M237.02 292C237.009 289.791 235.209 288.009 233 288.02C230.791 288.031 229.009 289.83 229.02 292.039L229.167 321.834L237.167 321.794L237.02 292Z" fill="#3AF9EF"/>
<path d="M257.019 339.541C257.009 341.75 255.209 343.532 253 343.521C250.791 343.511 249.009 341.711 249.019 339.502L249.147 313L257.147 313.039L257.019 339.541Z" fill="#2D99FF"/>
<path d="M275.02 259C275.009 256.791 273.209 255.009 271 255.02C268.791 255.031 267.009 256.83 267.02 259.039L267.31 317.717L275.31 317.677L275.02 259Z" fill="#3AF9EF"/>
<path d="M292.352 332.967C292.343 334.993 290.693 336.627 288.667 336.617C286.642 336.607 285.008 334.957 285.018 332.932L285.114 313L292.448 313.035L292.352 332.967Z" fill="#2D99FF"/>
<path d="M311.295 243.921C311.285 241.896 309.635 240.262 307.609 240.272C305.584 240.282 303.95 241.932 303.96 243.958L304.325 317.76L311.66 317.724L311.295 243.921Z" fill="#3AF9EF"/>
<path d="M335.352 325.646C335.343 327.671 333.693 329.305 331.667 329.296C329.642 329.286 328.008 327.636 328.018 325.611L328.074 314L335.408 314.035L335.352 325.646Z" fill="#2D99FF"/>
<path d="M353.715 223.832C353.705 221.807 352.055 220.173 350.03 220.183C348.005 220.193 346.371 221.843 346.381 223.868L346.851 318.981L354.186 318.945L353.715 223.832Z" fill="#3AF9EF"/>
<defs>
<filter id="filter0_d_209_11" x="0" y="0" width="415" height="410" filterUnits="userSpaceOnUse" color-interpolation-filters="sRGB">
<feFlood flood-opacity="0" result="BackgroundImageFix"/>
<feColorMatrix in="SourceAlpha" type="matrix" values="0 0 0 0 0 0 0 0 0 0 0 0 0 0 0 0 0 0 127 0" result="hardAlpha"/>
<feOffset dy="9"/>
<feGaussianBlur stdDeviation="25"/>
<feComposite in2="hardAlpha" operator="out"/>
<feColorMatrix type="matrix" values="0 0 0 0 0 0 0 0 0 0 0 0 0 0 0 0 0 0 0.25 0"/>
<feBlend mode="normal" in2="BackgroundImageFix" result="effect1_dropShadow_209_11"/>
<feBlend mode="normal" in="SourceGraphic" in2="effect1_dropShadow_209_11" result="shape"/>
</filter>
</defs>
</svg>
