<svg xmlns="http://www.w3.org/2000/svg" width="19.024" height="16.911" viewBox="0 0 19.024 16.911">
  <path id="house-solid" d="M19.019,8.439A1.067,1.067,0,0,1,17.962,9.5H16.9l.023,5.288a2.375,2.375,0,0,1-.017.268v.535a1.321,1.321,0,0,1-1.321,1.321h-.528c-.036,0-.073-.03-.109,0-.046-.026-.092,0-.139,0H12.948a1.321,1.321,0,0,1-1.321-1.321V12.683a1.056,1.056,0,0,0-1.057-1.057H8.456A1.056,1.056,0,0,0,7.4,12.683V15.59a1.321,1.321,0,0,1-1.321,1.321H4.231c-.05,0-.1,0-.149-.007s-.079.007-.119.007H3.435A1.321,1.321,0,0,1,2.114,15.59v-3.7c0-.03,0-.063,0-.092V9.5H1.059A1.047,1.047,0,0,1,0,8.439a1.073,1.073,0,0,1,.331-.793L8.8.265A.952.952,0,0,1,9.526,0a1.111,1.111,0,0,1,.7.232l8.433,7.415a.9.9,0,0,1,.363.793Z" fill="#fffdfd"/>
</svg>
