<svg xmlns="http://www.w3.org/2000/svg" width="60.507" height="69.133" viewBox="0 0 60.507 69.133">
  <path id="utensils-solid" d="M29.747,19.994a11.647,11.647,0,0,1,.068,5.2A12.491,12.491,0,0,1,27.587,29.9a13.5,13.5,0,0,1-7.358,4.32V63.639a5.3,5.3,0,0,1-1.458,3.821,5.481,5.481,0,0,1-3.942,1.58,5.34,5.34,0,0,1-3.7-1.58,5.53,5.53,0,0,1-1.7-3.821V34.223A12.5,12.5,0,0,1,2.3,29.943a11.525,11.525,0,0,1-2.16-9.936L4.22,1.6a2.162,2.162,0,0,1,4.273.479v19.44h2.345L13.145,1.527a1.809,1.809,0,0,1,.6-1.144,1.731,1.731,0,0,1,1.08-.458,1.882,1.882,0,0,1,1.323.458,2.677,2.677,0,0,1,.608,1.144l2.309,19.992H21.31V2.079A3.073,3.073,0,0,1,21.85.637a2.846,2.846,0,0,1,1.485-.717,2.337,2.337,0,0,1,1.5.4,2.212,2.212,0,0,1,.851,1.3ZM60.312,63.639a5.4,5.4,0,1,1-10.8,0v-16.2H47.244a8.779,8.779,0,0,1-3.321-.662,8.951,8.951,0,0,1-2.808-1.89,11.777,11.777,0,0,1-1.985-2.822,11.86,11.86,0,0,1-.527-3.321L38.59,23.382A26.022,26.022,0,0,1,43,9.407,24.9,24.9,0,0,1,54.385.235a4.13,4.13,0,0,1,2.066-.283A4.3,4.3,0,0,1,59.8,2.218a6.353,6.353,0,0,1,.513,2.021Z" transform="translate(0.195 0.094)" fill="#6a6a6a"/>
</svg>
